<svg version="1" xmlns="http://www.w3.org/2000/svg" width="346.667" height="346.667" viewBox="0 0 260.000000 260.000000"><path d="M14.5 2.4C8.5 5.2 4.8 9 2.1 15 .1 19.4 0 21 0 130v110.5l2.4 5c2.8 6 6.6 9.7 12.6 12.4 4.4 2 6 2.1 115 2.1s110.6-.1 115-2.1c6-2.7 9.8-6.4 12.6-12.4l2.4-5v-221l-2.4-5c-2.8-6-6.6-9.7-12.6-12.4-4.4-2-6-2.1-115-2.1H19.5l-5 2.4zm71.8 7c2.9 2.7 3.1 3.4 4.4 15.6 1.3 11.9 4.6 18.7 13 26.7 6.4 6.2 6.5 6.4 6 10.4-.5 3.5-1.5 5.1-6.6 9.8-13.7 12.8-16.8 33.3-7.6 51.8 4 8 8.6 12.6 16.7 16.5 13.4 6.5 26.9 6.3 40.5-.4 7.7-3.8 13.5-9.9 17.6-18.6 3-6.4 3.2-7.3 3.2-18.7 0-11.6-.1-12.3-3.4-18.9-2-4.1-5.2-8.6-8.3-11.4-5.9-5.6-8.2-9.5-7.2-12.5.4-1.2 3.7-5.4 7.4-9.3 8.3-8.7 10.8-14.8 12-28.4.8-8.9 1.1-9.7 3.9-12.2 4.1-3.7 9.2-3.8 12.7-.2 2.6 2.5 2.6 2.7 2.3 14.8l-.4 12.3-5.7 11.2c-3.2 6.2-5.8 12.3-5.8 13.5 0 1.1 2.6 7.2 5.7 13.5l5.8 11.5.3 13.9c.4 12.2.1 14.7-1.9 20.9-5.4 16.8-19.4 31.7-36.6 38.8-10.9 4.5-11.3 5-11.3 13.2 0 10.5.5 10.8 19.3 10.8 17 0 21.7.9 24.7 4.7 2.8 3.6 2.6 7.7-.7 11.3-3.7 4.1-7.9 4.9-24.9 5-10.5 0-14.5.4-16 1.4-1.7 1.3-1.9 3.1-2.4 21l-.5 19.5-3.4 3.5c-5.5 5.7-11.5 4.8-15.7-2.4-.5-.8-1.1-10-1.4-20.3-.6-24.3.8-22.7-21.4-22.7-19-.1-23.1-.8-26.8-5-5-5.5-2.5-12.9 5-15 2-.5 11.7-1 21.4-1 21.4 0 21.8-.2 21.8-9.9 0-3.3-.3-6.7-.6-7.6-.4-.8-5.7-4-12-7-18.2-8.8-29.7-21-35.6-37.9-2.3-6.7-2.8-9.8-2.8-18 0-12.4 1.8-19.5 8.1-31.5C81.8 67 84 62.2 84 61.5c0-.7-2-5.1-4.4-9.7-6.1-11.6-8.6-20.3-8.6-30 0-7.8.1-8.1 3.4-11.4 4.2-4.2 8.1-4.5 11.9-1zm53.5 26.4c1.5 2.2 1.7 6.2 2 28.2.4 29.5-.1 32.3-5.9 35.4-3.2 1.7-4 1.8-6.8.6-6.4-2.6-6.6-3.4-6.6-33.5 0-24.5.2-27.3 1.8-29.9 3.9-5.9 11.9-6.3 15.5-.8z"/></svg>